<?xml version="1.0" encoding="UTF-8" standalone="no"?><svg xmlns="http://www.w3.org/2000/svg" xmlns:xlink="http://www.w3.org/1999/xlink" contentStyleType="text/css" height="619px" preserveAspectRatio="none" style="width:583px;height:619px;background:#FFFFFF;" version="1.1" viewBox="0 0 583 619" width="583px" zoomAndPan="magnify"><defs/><g><rect fill="#F1F1F1" height="20.2969" rx="5" ry="5" style="stroke:#F1F1F1;stroke-width:1.5;" width="133" x="10" y="370.5"/><text fill="#000000" font-family="sans-serif" font-size="14" font-weight="bold" lengthAdjust="spacing" textLength="101" x="15" y="385.4951">PartyRoleSet</text><text fill="#000000" font-family="sans-serif" font-size="14" lengthAdjust="spacing" textLength="12" x="126" y="385.4951">   </text><line style="stroke:#000000;stroke-width:1.0;" x1="121" x2="121" y1="370.5" y2="390.7969"/><rect fill="none" height="20.2969" rx="5" ry="5" style="stroke:#000000;stroke-width:1.5;" width="133" x="10" y="370.5"/><rect fill="#F1F1F1" height="121.7813" rx="5" ry="5" style="stroke:#F1F1F1;stroke-width:1.5;" width="109" x="180" y="319.5"/><text fill="#000000" font-family="sans-serif" font-size="14" font-weight="bold" lengthAdjust="spacing" textLength="77" x="185" y="334.4951">Customer</text><text fill="#000000" font-family="sans-serif" font-size="14" lengthAdjust="spacing" textLength="12" x="272" y="334.4951">   </text><line style="stroke:#000000;stroke-width:1.0;" x1="267" x2="267" y1="319.5" y2="339.7969"/><line style="stroke:#000000;stroke-width:1.0;" x1="180" x2="289" y1="339.7969" y2="339.7969"/><text fill="#000000" font-family="sans-serif" font-size="14" font-weight="bold" lengthAdjust="spacing" textLength="65" x="185" y="354.792">Supplier</text><text fill="#000000" font-family="sans-serif" font-size="14" lengthAdjust="spacing" textLength="12" x="272" y="354.792">   </text><line style="stroke:#000000;stroke-width:1.0;" x1="267" x2="267" y1="339.7969" y2="360.0938"/><line style="stroke:#000000;stroke-width:1.0;" x1="180" x2="289" y1="360.0938" y2="360.0938"/><text fill="#000000" font-family="sans-serif" font-size="14" font-weight="bold" lengthAdjust="spacing" textLength="22" x="185" y="375.0889">DC</text><text fill="#000000" font-family="sans-serif" font-size="14" lengthAdjust="spacing" textLength="12" x="272" y="375.0889">   </text><line style="stroke:#000000;stroke-width:1.0;" x1="267" x2="267" y1="360.0938" y2="380.3906"/><line style="stroke:#000000;stroke-width:1.0;" x1="180" x2="289" y1="380.3906" y2="380.3906"/><text fill="#000000" font-family="sans-serif" font-size="14" font-weight="bold" lengthAdjust="spacing" textLength="53" x="185" y="395.3857">Owner</text><text fill="#000000" font-family="sans-serif" font-size="14" lengthAdjust="spacing" textLength="12" x="272" y="395.3857">   </text><line style="stroke:#000000;stroke-width:1.0;" x1="267" x2="267" y1="380.3906" y2="400.6875"/><line style="stroke:#000000;stroke-width:1.0;" x1="180" x2="289" y1="400.6875" y2="400.6875"/><text fill="#000000" font-family="sans-serif" font-size="14" font-weight="bold" lengthAdjust="spacing" textLength="60" x="185" y="415.6826">Creater</text><text fill="#000000" font-family="sans-serif" font-size="14" lengthAdjust="spacing" textLength="12" x="272" y="415.6826">   </text><line style="stroke:#000000;stroke-width:1.0;" x1="267" x2="267" y1="400.6875" y2="420.9844"/><line style="stroke:#000000;stroke-width:1.0;" x1="180" x2="289" y1="420.9844" y2="420.9844"/><text fill="#000000" font-family="sans-serif" font-size="14" font-weight="bold" lengthAdjust="spacing" textLength="15" x="185" y="435.9795">...</text><text fill="#000000" font-family="sans-serif" font-size="14" lengthAdjust="spacing" textLength="12" x="272" y="435.9795">   </text><line style="stroke:#000000;stroke-width:1.0;" x1="267" x2="267" y1="420.9844" y2="441.2813"/><rect fill="none" height="121.7813" rx="5" ry="5" style="stroke:#000000;stroke-width:1.5;" width="109" x="180" y="319.5"/><rect fill="#F1F1F1" height="202.9688" rx="5" ry="5" style="stroke:#F1F1F1;stroke-width:1.5;" width="245" x="326" y="10"/><text fill="#000000" font-family="sans-serif" font-size="14" font-weight="bold" lengthAdjust="spacing" textLength="91" x="331" y="24.9951">S_REDISKEY</text><text fill="#000000" font-family="sans-serif" font-size="14" lengthAdjust="spacing" textLength="97" x="454" y="24.9951">客户REDISKEY</text><line style="stroke:#000000;stroke-width:1.0;" x1="449" x2="449" y1="10" y2="30.2969"/><line style="stroke:#000000;stroke-width:1.0;" x1="326" x2="571" y1="30.2969" y2="30.2969"/><text fill="#000000" font-family="sans-serif" font-size="14" font-weight="bold" lengthAdjust="spacing" textLength="83" x="331" y="45.292">S_PARTYID</text><text fill="#000000" font-family="sans-serif" font-size="14" lengthAdjust="spacing" textLength="40" x="454" y="45.292">客户Id</text><line style="stroke:#000000;stroke-width:1.0;" x1="449" x2="449" y1="30.2969" y2="50.5938"/><line style="stroke:#000000;stroke-width:1.0;" x1="326" x2="571" y1="50.5938" y2="50.5938"/><text fill="#000000" font-family="sans-serif" font-size="14" font-weight="bold" lengthAdjust="spacing" textLength="91" x="331" y="65.5889">S_PARTYNO</text><text fill="#000000" font-family="sans-serif" font-size="14" lengthAdjust="spacing" textLength="56" x="454" y="65.5889">客户编号</text><line style="stroke:#000000;stroke-width:1.0;" x1="449" x2="449" y1="50.5938" y2="70.8906"/><line style="stroke:#000000;stroke-width:1.0;" x1="326" x2="571" y1="70.8906" y2="70.8906"/><text fill="#000000" font-family="sans-serif" font-size="14" font-weight="bold" lengthAdjust="spacing" textLength="113" x="331" y="85.8857">N_PARTYNAME</text><text fill="#000000" font-family="sans-serif" font-size="14" lengthAdjust="spacing" textLength="56" x="454" y="85.8857">客户名称</text><line style="stroke:#000000;stroke-width:1.0;" x1="449" x2="449" y1="70.8906" y2="91.1875"/><line style="stroke:#000000;stroke-width:1.0;" x1="326" x2="571" y1="91.1875" y2="91.1875"/><text fill="#000000" font-family="sans-serif" font-size="14" font-weight="bold" lengthAdjust="spacing" textLength="104" x="331" y="106.1826">S_ADDRESSID</text><text fill="#000000" font-family="sans-serif" font-size="14" lengthAdjust="spacing" textLength="98" x="454" y="106.1826">客户收货地址ID</text><line style="stroke:#000000;stroke-width:1.0;" x1="449" x2="449" y1="91.1875" y2="111.4844"/><line style="stroke:#000000;stroke-width:1.0;" x1="326" x2="571" y1="111.4844" y2="111.4844"/><text fill="#000000" font-family="sans-serif" font-size="14" font-weight="bold" lengthAdjust="spacing" textLength="112" x="331" y="126.4795">S_ADDRESSNO</text><text fill="#000000" font-family="sans-serif" font-size="14" lengthAdjust="spacing" textLength="112" x="454" y="126.4795">客户收货地址编号</text><line style="stroke:#000000;stroke-width:1.0;" x1="449" x2="449" y1="111.4844" y2="131.7813"/><line style="stroke:#000000;stroke-width:1.0;" x1="326" x2="571" y1="131.7813" y2="131.7813"/><text fill="#000000" font-family="sans-serif" font-size="14" font-weight="bold" lengthAdjust="spacing" textLength="90" x="331" y="146.7764">N_ADDRESS</text><text fill="#000000" font-family="sans-serif" font-size="14" lengthAdjust="spacing" textLength="84" x="454" y="146.7764">客户收货地址</text><line style="stroke:#000000;stroke-width:1.0;" x1="449" x2="449" y1="131.7813" y2="152.0781"/><line style="stroke:#000000;stroke-width:1.0;" x1="326" x2="571" y1="152.0781" y2="152.0781"/><text fill="#000000" font-family="sans-serif" font-size="14" font-weight="bold" lengthAdjust="spacing" textLength="85" x="331" y="167.0732">S_ZIPCODE</text><text fill="#000000" font-family="sans-serif" font-size="14" lengthAdjust="spacing" textLength="56" x="454" y="167.0732">邮政编号</text><line style="stroke:#000000;stroke-width:1.0;" x1="449" x2="449" y1="152.0781" y2="172.375"/><line style="stroke:#000000;stroke-width:1.0;" x1="326" x2="571" y1="172.375" y2="172.375"/><text fill="#000000" font-family="sans-serif" font-size="14" font-weight="bold" lengthAdjust="spacing" textLength="91" x="331" y="187.3701">N_RECEIVER</text><text fill="#000000" font-family="sans-serif" font-size="14" lengthAdjust="spacing" textLength="42" x="454" y="187.3701">收货人</text><line style="stroke:#000000;stroke-width:1.0;" x1="449" x2="449" y1="172.375" y2="192.6719"/><line style="stroke:#000000;stroke-width:1.0;" x1="326" x2="571" y1="192.6719" y2="192.6719"/><text fill="#000000" font-family="sans-serif" font-size="14" font-weight="bold" lengthAdjust="spacing" textLength="70" x="331" y="207.667">S_PHONE</text><text fill="#000000" font-family="sans-serif" font-size="14" lengthAdjust="spacing" textLength="70" x="454" y="207.667">收货人电话</text><line style="stroke:#000000;stroke-width:1.0;" x1="449" x2="449" y1="192.6719" y2="212.9688"/><rect fill="none" height="202.9688" rx="5" ry="5" style="stroke:#000000;stroke-width:1.5;" width="245" x="326" y="10"/><rect fill="#F1F1F1" height="60.8906" rx="5" ry="5" style="stroke:#F1F1F1;stroke-width:1.5;" width="203" x="347" y="231"/><text fill="#000000" font-family="sans-serif" font-size="14" font-weight="bold" lengthAdjust="spacing" textLength="83" x="352" y="245.9951">S_PARTYID</text><text fill="#000000" font-family="sans-serif" font-size="14" lengthAdjust="spacing" textLength="54" x="475" y="245.9951">供应商Id</text><line style="stroke:#000000;stroke-width:1.0;" x1="470" x2="470" y1="231" y2="251.2969"/><line style="stroke:#000000;stroke-width:1.0;" x1="347" x2="550" y1="251.2969" y2="251.2969"/><text fill="#000000" font-family="sans-serif" font-size="14" font-weight="bold" lengthAdjust="spacing" textLength="91" x="352" y="266.292">S_PARTYNO</text><text fill="#000000" font-family="sans-serif" font-size="14" lengthAdjust="spacing" textLength="70" x="475" y="266.292">供应商编号</text><line style="stroke:#000000;stroke-width:1.0;" x1="470" x2="470" y1="251.2969" y2="271.5938"/><line style="stroke:#000000;stroke-width:1.0;" x1="347" x2="550" y1="271.5938" y2="271.5938"/><text fill="#000000" font-family="sans-serif" font-size="14" font-weight="bold" lengthAdjust="spacing" textLength="113" x="352" y="286.5889">N_PARTYNAME</text><text fill="#000000" font-family="sans-serif" font-size="14" lengthAdjust="spacing" textLength="70" x="475" y="286.5889">供应商名称</text><line style="stroke:#000000;stroke-width:1.0;" x1="470" x2="470" y1="271.5938" y2="291.8906"/><rect fill="none" height="60.8906" rx="5" ry="5" style="stroke:#000000;stroke-width:1.5;" width="203" x="347" y="231"/><rect fill="#F1F1F1" height="60.8906" rx="5" ry="5" style="stroke:#F1F1F1;stroke-width:1.5;" width="189" x="354" y="310"/><text fill="#000000" font-family="sans-serif" font-size="14" font-weight="bold" lengthAdjust="spacing" textLength="83" x="359" y="324.9951">S_PARTYID</text><text fill="#000000" font-family="sans-serif" font-size="14" lengthAdjust="spacing" textLength="40" x="482" y="324.9951">仓库Id</text><line style="stroke:#000000;stroke-width:1.0;" x1="477" x2="477" y1="310" y2="330.2969"/><line style="stroke:#000000;stroke-width:1.0;" x1="354" x2="543" y1="330.2969" y2="330.2969"/><text fill="#000000" font-family="sans-serif" font-size="14" font-weight="bold" lengthAdjust="spacing" textLength="91" x="359" y="345.292">S_PARTYNO</text><text fill="#000000" font-family="sans-serif" font-size="14" lengthAdjust="spacing" textLength="56" x="482" y="345.292">仓库编号</text><line style="stroke:#000000;stroke-width:1.0;" x1="477" x2="477" y1="330.2969" y2="350.5938"/><line style="stroke:#000000;stroke-width:1.0;" x1="354" x2="543" y1="350.5938" y2="350.5938"/><text fill="#000000" font-family="sans-serif" font-size="14" font-weight="bold" lengthAdjust="spacing" textLength="113" x="359" y="365.5889">N_PARTYNAME</text><text fill="#000000" font-family="sans-serif" font-size="14" lengthAdjust="spacing" textLength="56" x="482" y="365.5889">仓库名称</text><line style="stroke:#000000;stroke-width:1.0;" x1="477" x2="477" y1="350.5938" y2="370.8906"/><rect fill="none" height="60.8906" rx="5" ry="5" style="stroke:#000000;stroke-width:1.5;" width="189" x="354" y="310"/><rect fill="#F1F1F1" height="60.8906" rx="5" ry="5" style="stroke:#F1F1F1;stroke-width:1.5;" width="189" x="354" y="389"/><text fill="#000000" font-family="sans-serif" font-size="14" font-weight="bold" lengthAdjust="spacing" textLength="83" x="359" y="403.9951">S_PARTYID</text><text fill="#000000" font-family="sans-serif" font-size="14" lengthAdjust="spacing" textLength="40" x="482" y="403.9951">货主Id</text><line style="stroke:#000000;stroke-width:1.0;" x1="477" x2="477" y1="389" y2="409.2969"/><line style="stroke:#000000;stroke-width:1.0;" x1="354" x2="543" y1="409.2969" y2="409.2969"/><text fill="#000000" font-family="sans-serif" font-size="14" font-weight="bold" lengthAdjust="spacing" textLength="91" x="359" y="424.292">S_PARTYNO</text><text fill="#000000" font-family="sans-serif" font-size="14" lengthAdjust="spacing" textLength="56" x="482" y="424.292">货主编号</text><line style="stroke:#000000;stroke-width:1.0;" x1="477" x2="477" y1="409.2969" y2="429.5938"/><line style="stroke:#000000;stroke-width:1.0;" x1="354" x2="543" y1="429.5938" y2="429.5938"/><text fill="#000000" font-family="sans-serif" font-size="14" font-weight="bold" lengthAdjust="spacing" textLength="113" x="359" y="444.5889">N_PARTYNAME</text><text fill="#000000" font-family="sans-serif" font-size="14" lengthAdjust="spacing" textLength="56" x="482" y="444.5889">货主名称</text><line style="stroke:#000000;stroke-width:1.0;" x1="477" x2="477" y1="429.5938" y2="449.8906"/><rect fill="none" height="60.8906" rx="5" ry="5" style="stroke:#000000;stroke-width:1.5;" width="189" x="354" y="389"/><rect fill="#F1F1F1" height="60.8906" rx="5" ry="5" style="stroke:#F1F1F1;stroke-width:1.5;" width="203" x="347" y="468"/><text fill="#000000" font-family="sans-serif" font-size="14" font-weight="bold" lengthAdjust="spacing" textLength="83" x="352" y="482.9951">S_PARTYID</text><text fill="#000000" font-family="sans-serif" font-size="14" lengthAdjust="spacing" textLength="54" x="475" y="482.9951">创建人Id</text><line style="stroke:#000000;stroke-width:1.0;" x1="470" x2="470" y1="468" y2="488.2969"/><line style="stroke:#000000;stroke-width:1.0;" x1="347" x2="550" y1="488.2969" y2="488.2969"/><text fill="#000000" font-family="sans-serif" font-size="14" font-weight="bold" lengthAdjust="spacing" textLength="91" x="352" y="503.292">S_PARTYNO</text><text fill="#000000" font-family="sans-serif" font-size="14" lengthAdjust="spacing" textLength="70" x="475" y="503.292">创建人编号</text><line style="stroke:#000000;stroke-width:1.0;" x1="470" x2="470" y1="488.2969" y2="508.5938"/><line style="stroke:#000000;stroke-width:1.0;" x1="347" x2="550" y1="508.5938" y2="508.5938"/><text fill="#000000" font-family="sans-serif" font-size="14" font-weight="bold" lengthAdjust="spacing" textLength="113" x="352" y="523.5889">N_PARTYNAME</text><text fill="#000000" font-family="sans-serif" font-size="14" lengthAdjust="spacing" textLength="70" x="475" y="523.5889">创建人名称</text><line style="stroke:#000000;stroke-width:1.0;" x1="470" x2="470" y1="508.5938" y2="528.8906"/><rect fill="none" height="60.8906" rx="5" ry="5" style="stroke:#000000;stroke-width:1.5;" width="203" x="347" y="468"/><rect fill="#F1F1F1" height="60.8906" rx="5" ry="5" style="stroke:#F1F1F1;stroke-width:1.5;" width="173" x="362" y="547"/><text fill="#000000" font-family="sans-serif" font-size="14" font-weight="bold" lengthAdjust="spacing" textLength="83" x="367" y="561.9951">S_PARTYID</text><text fill="#000000" font-family="sans-serif" font-size="14" lengthAdjust="spacing" textLength="12" x="490" y="561.9951">Id</text><line style="stroke:#000000;stroke-width:1.0;" x1="485" x2="485" y1="547" y2="567.2969"/><line style="stroke:#000000;stroke-width:1.0;" x1="362" x2="535" y1="567.2969" y2="567.2969"/><text fill="#000000" font-family="sans-serif" font-size="14" font-weight="bold" lengthAdjust="spacing" textLength="91" x="367" y="582.292">S_PARTYNO</text><text fill="#000000" font-family="sans-serif" font-size="14" lengthAdjust="spacing" textLength="19" x="490" y="582.292">No</text><line style="stroke:#000000;stroke-width:1.0;" x1="485" x2="485" y1="567.2969" y2="587.5938"/><line style="stroke:#000000;stroke-width:1.0;" x1="362" x2="535" y1="587.5938" y2="587.5938"/><text fill="#000000" font-family="sans-serif" font-size="14" font-weight="bold" lengthAdjust="spacing" textLength="113" x="367" y="602.5889">N_PARTYNAME</text><text fill="#000000" font-family="sans-serif" font-size="14" lengthAdjust="spacing" textLength="40" x="490" y="602.5889">Name</text><line style="stroke:#000000;stroke-width:1.0;" x1="485" x2="485" y1="587.5938" y2="607.8906"/><rect fill="none" height="60.8906" rx="5" ry="5" style="stroke:#000000;stroke-width:1.5;" width="173" x="362" y="547"/><path d="M279,331.5 L279,318.5 C279,279.6817 297.0537,244.1253 321.3596,213.8454 " fill="none" style="stroke:#000000;stroke-width:1.0;stroke-dasharray:3.0,3.0;"/><path d="M323.7536,215.8218 L322.8419,212.0499 L318.9656,211.869 L326.3006,207.8604 L323.7536,215.8218 " fill="#000000" style="stroke:#000000;stroke-width:1.0;"/><ellipse cx="279" cy="331.5" fill="#000000" rx="3" ry="3" style="stroke:#000000;stroke-width:1.0;"/><path d="M277,349.5 L290,349.5 C317.0235,349.5 304.0578,316.2738 326,300.5 C330.5307,297.2429 335.3455,294.2497 340.345,291.4998 " fill="none" style="stroke:#000000;stroke-width:1.0;stroke-dasharray:3.0,3.0;"/><path d="M341.7853,294.2689 L342.4218,290.4196 L338.9046,288.7307 L347.2677,287.8989 L341.7853,294.2689 " fill="#000000" style="stroke:#000000;stroke-width:1.0;"/><ellipse cx="277" cy="349.5" fill="#000000" rx="3" ry="3" style="stroke:#000000;stroke-width:1.0;"/><path d="M277,369.5 L290,369.5 C308.4654,369.5 327.9482,367.5601 346.687,364.6838 " fill="none" style="stroke:#000000;stroke-width:1.0;stroke-dasharray:3.0,3.0;"/><path d="M347.164,367.6513 L348.9127,364.326 L346.21,361.7162 L354.1059,363.4912 L347.164,367.6513 " fill="#000000" style="stroke:#000000;stroke-width:1.0;"/><ellipse cx="277" cy="369.5" fill="#000000" rx="3" ry="3" style="stroke:#000000;stroke-width:1.0;"/><path d="M277,390.5 L290,390.5 C308.4654,390.5 327.9482,392.4399 346.687,395.3162 " fill="none" style="stroke:#000000;stroke-width:1.0;stroke-dasharray:3.0,3.0;"/><path d="M346.21,398.2838 L348.9127,395.674 L347.164,392.3487 L354.1059,396.5088 L346.21,398.2838 " fill="#000000" style="stroke:#000000;stroke-width:1.0;"/><ellipse cx="277" cy="390.5" fill="#000000" rx="3" ry="3" style="stroke:#000000;stroke-width:1.0;"/><path d="M277,410.5 L290,410.5 C317.0235,410.5 304.0578,443.7262 326,459.5 C330.5307,462.7571 335.3455,465.7503 340.345,468.5002 " fill="none" style="stroke:#000000;stroke-width:1.0;stroke-dasharray:3.0,3.0;"/><path d="M338.9046,471.2693 L342.4218,469.5804 L341.7853,465.7311 L347.2677,472.1011 L338.9046,471.2693 " fill="#000000" style="stroke:#000000;stroke-width:1.0;"/><ellipse cx="277" cy="410.5" fill="#000000" rx="3" ry="3" style="stroke:#000000;stroke-width:1.0;"/><path d="M277,431.5 L290,431.5 C340.175,431.5 290.2532,503.2906 326,538.5 C334.4619,546.8347 344.7039,553.3893 355.6148,558.5436 " fill="none" style="stroke:#000000;stroke-width:1.0;stroke-dasharray:3.0,3.0;"/><path d="M354.4021,561.2916 L357.6758,559.4531 L356.8275,555.7956 L362.4848,561.5753 L354.4021,561.2916 " fill="#000000" style="stroke:#000000;stroke-width:1.0;"/><ellipse cx="277" cy="431.5" fill="#000000" rx="3" ry="3" style="stroke:#000000;stroke-width:1.0;"/><path d="M131,380.5 L144,380.5 C153.2468,380.5 163.0281,380.5 172.6025,380.5 " fill="none" style="stroke:#000000;stroke-width:1.0;stroke-dasharray:3.0,3.0;"/><path d="M172.6025,383.548 L174.8884,380.5 L172.6025,377.452 L180.2224,380.5 L172.6025,383.548 " fill="#000000" style="stroke:#000000;stroke-width:1.0;"/><ellipse cx="131" cy="380.5" fill="#000000" rx="3" ry="3" style="stroke:#000000;stroke-width:1.0;"/></g></svg>